<svg width="67" height="19" viewBox="0 0 67 19" fill="none" xmlns="http://www.w3.org/2000/svg">
    <rect width="67" height="19" rx="9.5" fill="#F2F0F9"/>
    <circle cx="8" cy="10" r="3" fill="#6E6893"/>
    <path d="M23.892 5.076H24.852V15.936H23.892V5.076ZM22.176 9.456H24.264V10.296H22.176V9.456ZM21.528 5.304H22.476V15.384H21.528V5.304ZM17.844 6.756H18.612V8.016C18.612 8.656 18.56 9.268 18.456 9.852C18.352 10.436 18.192 10.972 17.976 11.46C17.768 11.948 17.508 12.384 17.196 12.768C16.884 13.144 16.52 13.456 16.104 13.704L15.48 12.936C16.008 12.648 16.444 12.26 16.788 11.772C17.132 11.276 17.392 10.708 17.568 10.068C17.752 9.428 17.844 8.744 17.844 8.016V6.756ZM18.024 6.756H18.804V8.016C18.804 8.672 18.892 9.296 19.068 9.888C19.244 10.48 19.504 11.008 19.848 11.472C20.192 11.928 20.62 12.288 21.132 12.552L20.544 13.32C19.992 13.008 19.528 12.588 19.152 12.06C18.776 11.532 18.492 10.924 18.3 10.236C18.116 9.548 18.024 8.808 18.024 8.016V6.756ZM15.744 6.36H20.772V7.176H15.744V6.36ZM27.6831 6.168H34.6671V6.984H27.6831V6.168ZM26.6391 13.584H36.4431V14.412H26.6391V13.584ZM30.4551 9.708H31.4391V14.004H30.4551V9.708ZM34.2831 6.168H35.2791V7.236C35.2791 7.684 35.2711 8.156 35.2551 8.652C35.2471 9.148 35.2151 9.692 35.1591 10.284C35.1111 10.876 35.0191 11.536 34.8831 12.264L33.8751 12.144C34.0831 11.104 34.2031 10.192 34.2351 9.408C34.2671 8.616 34.2831 7.892 34.2831 7.236V6.168ZM38.9141 11.448H39.8501V12.792H41.7461V11.448H42.6701V15.792H38.9141V11.448ZM39.8501 13.548V15.012H41.7461V13.548H39.8501ZM44.7701 11.376H45.5501V12.288C45.5501 12.776 45.4661 13.256 45.2981 13.728C45.1301 14.192 44.8781 14.612 44.5421 14.988C44.2141 15.364 43.8021 15.66 43.3061 15.876L42.8021 15.12C43.2341 14.936 43.5981 14.692 43.8941 14.388C44.1901 14.084 44.4101 13.748 44.5541 13.38C44.6981 13.012 44.7701 12.648 44.7701 12.288V11.376ZM44.9861 11.376H45.7541V12.288C45.7541 12.672 45.8261 13.052 45.9701 13.428C46.1221 13.796 46.3461 14.128 46.6421 14.424C46.9381 14.72 47.3021 14.952 47.7341 15.12L47.2181 15.876C46.7141 15.668 46.2981 15.38 45.9701 15.012C45.6421 14.644 45.3941 14.224 45.2261 13.752C45.0661 13.28 44.9861 12.792 44.9861 12.288V11.376ZM43.1261 7.62H46.0421V8.448H43.1261V7.62ZM40.6421 5.556C41.1781 5.556 41.6541 5.664 42.0701 5.88C42.4941 6.088 42.8261 6.38 43.0661 6.756C43.3061 7.124 43.4261 7.556 43.4261 8.052C43.4261 8.54 43.3061 8.976 43.0661 9.36C42.8261 9.736 42.4941 10.032 42.0701 10.248C41.6541 10.456 41.1781 10.56 40.6421 10.56C40.0981 10.56 39.6141 10.456 39.1901 10.248C38.7741 10.032 38.4461 9.736 38.2061 9.36C37.9661 8.976 37.8461 8.54 37.8461 8.052C37.8461 7.556 37.9661 7.124 38.2061 6.756C38.4461 6.38 38.7741 6.088 39.1901 5.88C39.6141 5.664 40.0981 5.556 40.6421 5.556ZM40.6421 6.384C40.2821 6.384 39.9621 6.456 39.6821 6.6C39.4101 6.736 39.1941 6.932 39.0341 7.188C38.8741 7.436 38.7941 7.724 38.7941 8.052C38.7941 8.38 38.8741 8.672 39.0341 8.928C39.1941 9.176 39.4101 9.372 39.6821 9.516C39.9621 9.66 40.2821 9.732 40.6421 9.732C40.9941 9.732 41.3061 9.66 41.5781 9.516C41.8581 9.372 42.0781 9.176 42.2381 8.928C42.3981 8.672 42.4781 8.38 42.4781 8.052C42.4781 7.724 42.3981 7.436 42.2381 7.188C42.0781 6.932 41.8581 6.736 41.5781 6.6C41.3061 6.456 40.9941 6.384 40.6421 6.384ZM45.6101 5.076H46.6061V10.824H45.6101V5.076ZM53.6132 5.316C54.3972 5.316 55.0732 5.4 55.6412 5.568C56.2172 5.728 56.6572 5.96 56.9612 6.264C57.2732 6.568 57.4292 6.94 57.4292 7.38C57.4292 7.804 57.2732 8.172 56.9612 8.484C56.6572 8.788 56.2172 9.02 55.6412 9.18C55.0732 9.34 54.3972 9.42 53.6132 9.42C52.8372 9.42 52.1612 9.34 51.5852 9.18C51.0172 9.02 50.5772 8.788 50.2652 8.484C49.9532 8.172 49.7972 7.804 49.7972 7.38C49.7972 6.94 49.9532 6.568 50.2652 6.264C50.5772 5.96 51.0172 5.728 51.5852 5.568C52.1612 5.4 52.8372 5.316 53.6132 5.316ZM53.6132 6.108C53.0452 6.108 52.5492 6.16 52.1252 6.264C51.7092 6.36 51.3852 6.504 51.1532 6.696C50.9292 6.88 50.8172 7.108 50.8172 7.38C50.8172 7.636 50.9292 7.86 51.1532 8.052C51.3852 8.236 51.7092 8.38 52.1252 8.484C52.5492 8.58 53.0452 8.628 53.6132 8.628C54.1892 8.628 54.6852 8.58 55.1012 8.484C55.5252 8.38 55.8492 8.236 56.0732 8.052C56.2972 7.86 56.4092 7.636 56.4092 7.38C56.4092 7.108 56.2972 6.88 56.0732 6.696C55.8492 6.504 55.5252 6.36 55.1012 6.264C54.6852 6.16 54.1892 6.108 53.6132 6.108ZM49.9172 12.216H57.3212V15.792H49.9172V12.216ZM56.3492 13.02H50.8892V14.976H56.3492V13.02ZM48.7172 10.344H58.5212V11.16H48.7172V10.344Z" fill="#6E6893"/>
    </svg>