<svg width="70" height="19" viewBox="0 0 70 19" fill="none" xmlns="http://www.w3.org/2000/svg">
    <rect width="62" height="19" rx="9.5" fill="#FFCCFC"/>
    <path d="M16.984 5.108H17.932V7.748H20.212V5.108H21.136V12.224H16.984V5.108ZM17.932 8.552V11.408H20.212V8.552H17.932ZM24.868 4.076H25.828V14.936H24.868V4.076ZM23.128 8.372H25.216V9.2H23.128V8.372ZM22.456 4.304H23.404V14.384H22.456V4.304ZM32.0431 7.88H33.0271V9.896H32.0431V7.88ZM32.0311 4.244H32.8831V4.736C32.8831 5.12 32.8071 5.484 32.6551 5.828C32.5031 6.172 32.2871 6.488 32.0071 6.776C31.7351 7.064 31.4191 7.32 31.0591 7.544C30.6991 7.76 30.3111 7.948 29.8951 8.108C29.4791 8.26 29.0471 8.372 28.5991 8.444L28.2271 7.652C28.6111 7.596 28.9871 7.508 29.3551 7.388C29.7311 7.26 30.0791 7.108 30.3991 6.932C30.7191 6.748 30.9991 6.54 31.2391 6.308C31.4871 6.076 31.6791 5.828 31.8151 5.564C31.9591 5.3 32.0311 5.024 32.0311 4.736V4.244ZM32.1871 4.244H33.0391V4.736C33.0391 5.024 33.1071 5.3 33.2431 5.564C33.3791 5.828 33.5711 6.076 33.8191 6.308C34.0671 6.532 34.3511 6.736 34.6711 6.92C34.9911 7.104 35.3351 7.26 35.7031 7.388C36.0791 7.508 36.4591 7.596 36.8431 7.652L36.4591 8.444C36.0191 8.372 35.5911 8.26 35.1751 8.108C34.7671 7.948 34.3791 7.756 34.0111 7.532C33.6511 7.308 33.3311 7.056 33.0511 6.776C32.7791 6.488 32.5671 6.176 32.4151 5.84C32.2631 5.496 32.1871 5.128 32.1871 4.736V4.244ZM27.6391 9.464H37.4431V10.268H27.6391V9.464ZM32.5351 11.156C33.6951 11.156 34.6031 11.32 35.2591 11.648C35.9151 11.976 36.2431 12.44 36.2431 13.04C36.2431 13.64 35.9151 14.1 35.2591 14.42C34.6031 14.748 33.6951 14.912 32.5351 14.912C31.3671 14.912 30.4551 14.748 29.7991 14.42C29.1431 14.1 28.8151 13.64 28.8151 13.04C28.8151 12.44 29.1431 11.976 29.7991 11.648C30.4551 11.32 31.3671 11.156 32.5351 11.156ZM32.5351 11.936C31.6791 11.936 31.0111 12.032 30.5311 12.224C30.0591 12.408 29.8231 12.68 29.8231 13.04C29.8231 13.392 30.0591 13.664 30.5311 13.856C31.0111 14.048 31.6791 14.144 32.5351 14.144C33.3831 14.144 34.0471 14.048 34.5271 13.856C35.0071 13.664 35.2471 13.392 35.2471 13.04C35.2471 12.68 35.0071 12.408 34.5271 12.224C34.0471 12.032 33.3831 11.936 32.5351 11.936ZM43.0821 9.5H44.0661V11.396H43.0821V9.5ZM38.6781 9.152H48.4821V9.968H38.6781V9.152ZM43.5741 11.096C44.7341 11.096 45.6421 11.26 46.2981 11.588C46.9541 11.916 47.2821 12.388 47.2821 13.004C47.2821 13.612 46.9541 14.08 46.2981 14.408C45.6421 14.744 44.7341 14.912 43.5741 14.912C42.4141 14.912 41.5021 14.744 40.8381 14.408C40.1821 14.08 39.8541 13.612 39.8541 13.004C39.8541 12.388 40.1821 11.916 40.8381 11.588C41.5021 11.26 42.4141 11.096 43.5741 11.096ZM43.5741 11.876C43.0061 11.876 42.5181 11.92 42.1101 12.008C41.7101 12.096 41.4021 12.224 41.1861 12.392C40.9701 12.56 40.8621 12.764 40.8621 13.004C40.8621 13.244 40.9701 13.448 41.1861 13.616C41.4021 13.784 41.7101 13.912 42.1101 14C42.5181 14.096 43.0061 14.144 43.5741 14.144C44.1421 14.144 44.6261 14.096 45.0261 14C45.4341 13.912 45.7461 13.784 45.9621 13.616C46.1781 13.448 46.2861 13.244 46.2861 13.004C46.2861 12.764 46.1781 12.56 45.9621 12.392C45.7461 12.224 45.4341 12.096 45.0261 12.008C44.6261 11.92 44.1421 11.876 43.5741 11.876ZM42.9381 4.976H43.8141V5.3C43.8141 5.652 43.7381 5.976 43.5861 6.272C43.4421 6.568 43.2381 6.844 42.9741 7.1C42.7101 7.348 42.3981 7.568 42.0381 7.76C41.6861 7.952 41.3021 8.112 40.8861 8.24C40.4701 8.36 40.0341 8.448 39.5781 8.504L39.2181 7.712C39.6101 7.672 39.9861 7.604 40.3461 7.508C40.7141 7.404 41.0541 7.28 41.3661 7.136C41.6861 6.984 41.9621 6.812 42.1941 6.62C42.4261 6.428 42.6061 6.22 42.7341 5.996C42.8701 5.772 42.9381 5.54 42.9381 5.3V4.976ZM43.3461 4.976H44.2221V5.3C44.2221 5.548 44.2861 5.784 44.4141 6.008C44.5501 6.224 44.7341 6.428 44.9661 6.62C45.1981 6.804 45.4701 6.972 45.7821 7.124C46.1021 7.268 46.4421 7.392 46.8021 7.496C47.1701 7.6 47.5501 7.672 47.9421 7.712L47.5821 8.504C47.1261 8.448 46.6901 8.36 46.2741 8.24C45.8581 8.112 45.4701 7.952 45.1101 7.76C44.7581 7.568 44.4501 7.348 44.1861 7.1C43.9221 6.852 43.7141 6.576 43.5621 6.272C43.4181 5.968 43.3461 5.644 43.3461 5.3V4.976ZM39.5781 4.58H47.5941V5.384H39.5781V4.58Z" fill="#965E00"/>
    <circle cx="8" cy="10" r="3" fill="#FE81F7"/>
    </svg>