<svg width="58" height="19" viewBox="0 0 58 19" fill="none" xmlns="http://www.w3.org/2000/svg">
    <rect width="58" height="19" rx="9.5" fill="#E6E6F2"/>
    <path d="M16.924 5.084H22.732V5.912H16.924V5.084ZM16.744 10.46L16.624 9.632C17.256 9.624 17.948 9.616 18.7 9.608C19.46 9.592 20.228 9.564 21.004 9.524C21.78 9.484 22.524 9.42 23.236 9.332L23.308 10.076C22.588 10.188 21.84 10.272 21.064 10.328C20.288 10.384 19.528 10.42 18.784 10.436C18.048 10.452 17.368 10.46 16.744 10.46ZM18.004 5.708H18.964V9.8H18.004V5.708ZM20.692 5.708H21.652V9.8H20.692V5.708ZM24.028 4.088H25.024V12.08H24.028V4.088ZM24.712 7.376H26.62V8.216H24.712V7.376ZM18.268 13.88H25.504V14.696H18.268V13.88ZM18.268 11.324H19.252V14.096H18.268V11.324ZM35.9071 4.076H36.8671V14.936H35.9071V4.076ZM34.1791 8.372H36.2671V9.2H34.1791V8.372ZM33.4951 4.304H34.4431V14.384H33.4951V4.304ZM28.0231 5.336H32.1631V12.02H28.0231V5.336ZM31.2271 6.128H28.9591V11.228H31.2271V6.128ZM43.0821 9.5H44.0661V11.396H43.0821V9.5ZM38.6781 9.152H48.4821V9.968H38.6781V9.152ZM43.5741 11.096C44.7341 11.096 45.6421 11.26 46.2981 11.588C46.9541 11.916 47.2821 12.388 47.2821 13.004C47.2821 13.612 46.9541 14.08 46.2981 14.408C45.6421 14.744 44.7341 14.912 43.5741 14.912C42.4141 14.912 41.5021 14.744 40.8381 14.408C40.1821 14.08 39.8541 13.612 39.8541 13.004C39.8541 12.388 40.1821 11.916 40.8381 11.588C41.5021 11.26 42.4141 11.096 43.5741 11.096ZM43.5741 11.876C43.0061 11.876 42.5181 11.92 42.1101 12.008C41.7101 12.096 41.4021 12.224 41.1861 12.392C40.9701 12.56 40.8621 12.764 40.8621 13.004C40.8621 13.244 40.9701 13.448 41.1861 13.616C41.4021 13.784 41.7101 13.912 42.1101 14C42.5181 14.096 43.0061 14.144 43.5741 14.144C44.1421 14.144 44.6261 14.096 45.0261 14C45.4341 13.912 45.7461 13.784 45.9621 13.616C46.1781 13.448 46.2861 13.244 46.2861 13.004C46.2861 12.764 46.1781 12.56 45.9621 12.392C45.7461 12.224 45.4341 12.096 45.0261 12.008C44.6261 11.92 44.1421 11.876 43.5741 11.876ZM42.9381 4.976H43.8141V5.3C43.8141 5.652 43.7381 5.976 43.5861 6.272C43.4421 6.568 43.2381 6.844 42.9741 7.1C42.7101 7.348 42.3981 7.568 42.0381 7.76C41.6861 7.952 41.3021 8.112 40.8861 8.24C40.4701 8.36 40.0341 8.448 39.5781 8.504L39.2181 7.712C39.6101 7.672 39.9861 7.604 40.3461 7.508C40.7141 7.404 41.0541 7.28 41.3661 7.136C41.6861 6.984 41.9621 6.812 42.1941 6.62C42.4261 6.428 42.6061 6.22 42.7341 5.996C42.8701 5.772 42.9381 5.54 42.9381 5.3V4.976ZM43.3461 4.976H44.2221V5.3C44.2221 5.548 44.2861 5.784 44.4141 6.008C44.5501 6.224 44.7341 6.428 44.9661 6.62C45.1981 6.804 45.4701 6.972 45.7821 7.124C46.1021 7.268 46.4421 7.392 46.8021 7.496C47.1701 7.6 47.5501 7.672 47.9421 7.712L47.5821 8.504C47.1261 8.448 46.6901 8.36 46.2741 8.24C45.8581 8.112 45.4701 7.952 45.1101 7.76C44.7581 7.568 44.4501 7.348 44.1861 7.1C43.9221 6.852 43.7141 6.576 43.5621 6.272C43.4181 5.968 43.3461 5.644 43.3461 5.3V4.976ZM39.5781 4.58H47.5941V5.384H39.5781V4.58Z" fill="#4A4AFF"/>
    <circle cx="8" cy="10" r="3" fill="#4A4AFF"/>
    </svg>