<svg width="70" height="19" viewBox="0 0 70 19" fill="none" xmlns="http://www.w3.org/2000/svg">
    <rect width="62" height="19" rx="9.5" fill="#FFECCC"/>
    <path d="M19.444 9.176H20.428V10.556H19.444V9.176ZM24.016 4.088H25.012V11.36H24.016V4.088ZM24.592 7.364H26.596V8.192H24.592V7.364ZM16.66 11.048L16.54 10.244C17.188 10.244 17.896 10.24 18.664 10.232C19.44 10.216 20.232 10.184 21.04 10.136C21.848 10.088 22.624 10.012 23.368 9.908L23.44 10.616C22.672 10.752 21.884 10.852 21.076 10.916C20.276 10.972 19.496 11.008 18.736 11.024C17.984 11.04 17.292 11.048 16.66 11.048ZM17.872 11.912H25.012V14.936H24.016V12.704H17.872V11.912ZM16.816 5.06H23.044V5.816H16.816V5.06ZM19.924 6.224C20.692 6.224 21.304 6.368 21.76 6.656C22.224 6.944 22.456 7.336 22.456 7.832C22.456 8.328 22.224 8.72 21.76 9.008C21.304 9.296 20.692 9.44 19.924 9.44C19.164 9.44 18.552 9.296 18.088 9.008C17.624 8.72 17.392 8.328 17.392 7.832C17.392 7.336 17.624 6.944 18.088 6.656C18.552 6.368 19.164 6.224 19.924 6.224ZM19.924 6.92C19.444 6.92 19.06 7 18.772 7.16C18.484 7.32 18.34 7.544 18.34 7.832C18.34 8.104 18.484 8.328 18.772 8.504C19.06 8.672 19.444 8.756 19.924 8.756C20.404 8.756 20.788 8.672 21.076 8.504C21.364 8.328 21.508 8.104 21.508 7.832C21.508 7.544 21.364 7.32 21.076 7.16C20.788 7 20.404 6.92 19.924 6.92ZM19.444 3.992H20.428V5.432H19.444V3.992ZM35.5351 4.088H36.5311V12.008H35.5351V4.088ZM29.5591 13.88H36.8671V14.696H29.5591V13.88ZM29.5591 11.204H30.5551V14.156H29.5591V11.204ZM30.7111 4.844C31.2551 4.844 31.7391 4.956 32.1631 5.18C32.5871 5.404 32.9231 5.72 33.1711 6.128C33.4191 6.528 33.5431 6.988 33.5431 7.508C33.5431 8.028 33.4191 8.492 33.1711 8.9C32.9231 9.3 32.5871 9.616 32.1631 9.848C31.7391 10.072 31.2551 10.184 30.7111 10.184C30.1751 10.184 29.6911 10.072 29.2591 9.848C28.8351 9.616 28.4991 9.3 28.2511 8.9C28.0031 8.492 27.8791 8.028 27.8791 7.508C27.8791 6.988 28.0031 6.528 28.2511 6.128C28.4991 5.72 28.8351 5.404 29.2591 5.18C29.6911 4.956 30.1751 4.844 30.7111 4.844ZM30.7111 5.708C30.3591 5.708 30.0431 5.784 29.7631 5.936C29.4831 6.088 29.2591 6.3 29.0911 6.572C28.9311 6.844 28.8511 7.156 28.8511 7.508C28.8511 7.868 28.9311 8.184 29.0911 8.456C29.2591 8.72 29.4831 8.928 29.7631 9.08C30.0431 9.232 30.3591 9.308 30.7111 9.308C31.0631 9.308 31.3791 9.232 31.6591 9.08C31.9471 8.928 32.1711 8.72 32.3311 8.456C32.4911 8.184 32.5711 7.868 32.5711 7.508C32.5711 7.156 32.4911 6.844 32.3311 6.572C32.1711 6.3 31.9471 6.088 31.6591 5.936C31.3791 5.784 31.0631 5.708 30.7111 5.708ZM43.0821 9.5H44.0661V11.396H43.0821V9.5ZM38.6781 9.152H48.4821V9.968H38.6781V9.152ZM43.5741 11.096C44.7341 11.096 45.6421 11.26 46.2981 11.588C46.9541 11.916 47.2821 12.388 47.2821 13.004C47.2821 13.612 46.9541 14.08 46.2981 14.408C45.6421 14.744 44.7341 14.912 43.5741 14.912C42.4141 14.912 41.5021 14.744 40.8381 14.408C40.1821 14.08 39.8541 13.612 39.8541 13.004C39.8541 12.388 40.1821 11.916 40.8381 11.588C41.5021 11.26 42.4141 11.096 43.5741 11.096ZM43.5741 11.876C43.0061 11.876 42.5181 11.92 42.1101 12.008C41.7101 12.096 41.4021 12.224 41.1861 12.392C40.9701 12.56 40.8621 12.764 40.8621 13.004C40.8621 13.244 40.9701 13.448 41.1861 13.616C41.4021 13.784 41.7101 13.912 42.1101 14C42.5181 14.096 43.0061 14.144 43.5741 14.144C44.1421 14.144 44.6261 14.096 45.0261 14C45.4341 13.912 45.7461 13.784 45.9621 13.616C46.1781 13.448 46.2861 13.244 46.2861 13.004C46.2861 12.764 46.1781 12.56 45.9621 12.392C45.7461 12.224 45.4341 12.096 45.0261 12.008C44.6261 11.92 44.1421 11.876 43.5741 11.876ZM42.9381 4.976H43.8141V5.3C43.8141 5.652 43.7381 5.976 43.5861 6.272C43.4421 6.568 43.2381 6.844 42.9741 7.1C42.7101 7.348 42.3981 7.568 42.0381 7.76C41.6861 7.952 41.3021 8.112 40.8861 8.24C40.4701 8.36 40.0341 8.448 39.5781 8.504L39.2181 7.712C39.6101 7.672 39.9861 7.604 40.3461 7.508C40.7141 7.404 41.0541 7.28 41.3661 7.136C41.6861 6.984 41.9621 6.812 42.1941 6.62C42.4261 6.428 42.6061 6.22 42.7341 5.996C42.8701 5.772 42.9381 5.54 42.9381 5.3V4.976ZM43.3461 4.976H44.2221V5.3C44.2221 5.548 44.2861 5.784 44.4141 6.008C44.5501 6.224 44.7341 6.428 44.9661 6.62C45.1981 6.804 45.4701 6.972 45.7821 7.124C46.1021 7.268 46.4421 7.392 46.8021 7.496C47.1701 7.6 47.5501 7.672 47.9421 7.712L47.5821 8.504C47.1261 8.448 46.6901 8.36 46.2741 8.24C45.8581 8.112 45.4701 7.952 45.1101 7.76C44.7581 7.568 44.4501 7.348 44.1861 7.1C43.9221 6.852 43.7141 6.576 43.5621 6.272C43.4181 5.968 43.3461 5.644 43.3461 5.3V4.976ZM39.5781 4.58H47.5941V5.384H39.5781V4.58Z" fill="#965E00"/>
    <circle cx="8" cy="10" r="3" fill="#CE8500"/>
    </svg>