<svg width="83" height="19" viewBox="0 0 83 19" fill="none" xmlns="http://www.w3.org/2000/svg">
    <rect width="73.5143" height="19" rx="9.5" fill="#CDFFCD"/>
    <path d="M19.9557 5.108H20.9037V7.748H23.1837V5.108H24.1077V12.224H19.9557V5.108ZM20.9037 8.552V11.408H23.1837V8.552H20.9037ZM27.8397 4.076H28.7997V14.936H27.8397V4.076ZM26.0997 8.372H28.1877V9.2H26.0997V8.372ZM25.4277 4.304H26.3757V14.384H25.4277V4.304ZM35.0147 7.88H35.9987V9.896H35.0147V7.88ZM35.0027 4.244H35.8547V4.736C35.8547 5.12 35.7787 5.484 35.6267 5.828C35.4747 6.172 35.2587 6.488 34.9787 6.776C34.7067 7.064 34.3907 7.32 34.0307 7.544C33.6707 7.76 33.2827 7.948 32.8667 8.108C32.4507 8.26 32.0187 8.372 31.5707 8.444L31.1987 7.652C31.5827 7.596 31.9587 7.508 32.3267 7.388C32.7027 7.26 33.0507 7.108 33.3707 6.932C33.6907 6.748 33.9707 6.54 34.2107 6.308C34.4587 6.076 34.6507 5.828 34.7867 5.564C34.9307 5.3 35.0027 5.024 35.0027 4.736V4.244ZM35.1587 4.244H36.0107V4.736C36.0107 5.024 36.0787 5.3 36.2147 5.564C36.3507 5.828 36.5427 6.076 36.7907 6.308C37.0387 6.532 37.3227 6.736 37.6427 6.92C37.9627 7.104 38.3067 7.26 38.6747 7.388C39.0507 7.508 39.4307 7.596 39.8147 7.652L39.4307 8.444C38.9907 8.372 38.5627 8.26 38.1467 8.108C37.7387 7.948 37.3507 7.756 36.9827 7.532C36.6227 7.308 36.3027 7.056 36.0227 6.776C35.7507 6.488 35.5387 6.176 35.3867 5.84C35.2347 5.496 35.1587 5.128 35.1587 4.736V4.244ZM30.6107 9.464H40.4147V10.268H30.6107V9.464ZM35.5067 11.156C36.6667 11.156 37.5747 11.32 38.2307 11.648C38.8867 11.976 39.2147 12.44 39.2147 13.04C39.2147 13.64 38.8867 14.1 38.2307 14.42C37.5747 14.748 36.6667 14.912 35.5067 14.912C34.3387 14.912 33.4267 14.748 32.7707 14.42C32.1147 14.1 31.7867 13.64 31.7867 13.04C31.7867 12.44 32.1147 11.976 32.7707 11.648C33.4267 11.32 34.3387 11.156 35.5067 11.156ZM35.5067 11.936C34.6507 11.936 33.9827 12.032 33.5027 12.224C33.0307 12.408 32.7947 12.68 32.7947 13.04C32.7947 13.392 33.0307 13.664 33.5027 13.856C33.9827 14.048 34.6507 14.144 35.5067 14.144C36.3547 14.144 37.0187 14.048 37.4987 13.856C37.9787 13.664 38.2187 13.392 38.2187 13.04C38.2187 12.68 37.9787 12.408 37.4987 12.224C37.0187 12.032 36.3547 11.936 35.5067 11.936ZM44.4578 8.588H45.4538V10.232H44.4578V8.588ZM44.9258 4.58C45.4458 4.58 45.9058 4.672 46.3058 4.856C46.7138 5.032 47.0298 5.28 47.2538 5.6C47.4858 5.92 47.6018 6.292 47.6018 6.716C47.6018 7.14 47.4858 7.516 47.2538 7.844C47.0298 8.164 46.7138 8.416 46.3058 8.6C45.9058 8.776 45.4458 8.864 44.9258 8.864C44.4058 8.864 43.9418 8.776 43.5338 8.6C43.1338 8.416 42.8178 8.164 42.5858 7.844C42.3618 7.516 42.2498 7.14 42.2498 6.716C42.2498 6.292 42.3618 5.92 42.5858 5.6C42.8178 5.28 43.1338 5.032 43.5338 4.856C43.9418 4.672 44.4058 4.58 44.9258 4.58ZM44.9258 5.348C44.5898 5.348 44.2898 5.404 44.0258 5.516C43.7618 5.628 43.5538 5.788 43.4018 5.996C43.2578 6.204 43.1858 6.444 43.1858 6.716C43.1858 6.988 43.2578 7.228 43.4018 7.436C43.5538 7.644 43.7618 7.808 44.0258 7.928C44.2898 8.04 44.5898 8.096 44.9258 8.096C45.2698 8.096 45.5698 8.04 45.8258 7.928C46.0898 7.808 46.2938 7.644 46.4378 7.436C46.5898 7.228 46.6658 6.988 46.6658 6.716C46.6658 6.444 46.5898 6.204 46.4378 5.996C46.2938 5.788 46.0898 5.628 45.8258 5.516C45.5698 5.404 45.2698 5.348 44.9258 5.348ZM49.0658 4.088H50.0618V12.392H49.0658V4.088ZM49.6418 7.748H51.6458V8.588H49.6418V7.748ZM43.1978 13.868H50.4458V14.684H43.1978V13.868ZM43.1978 11.684H44.1938V14.228H43.1978V11.684ZM41.7578 10.784L41.6378 9.956C42.2698 9.956 42.9658 9.952 43.7258 9.944C44.4938 9.928 45.2778 9.896 46.0778 9.848C46.8778 9.792 47.6458 9.708 48.3818 9.596L48.4538 10.328C47.7018 10.464 46.9258 10.564 46.1258 10.628C45.3338 10.692 44.5618 10.736 43.8098 10.76C43.0658 10.776 42.3818 10.784 41.7578 10.784ZM55.4369 10.436H56.4089V13.1H55.4369V10.436ZM58.9049 10.424H59.8769V13.088H58.9049V10.424ZM52.6889 12.764H62.5289V13.592H52.6889V12.764ZM53.8889 4.88H61.3049V8.168H54.8969V10.34H53.9129V7.364H60.3209V5.696H53.8889V4.88ZM53.9129 9.908H61.5569V10.724H53.9129V9.908Z" fill="#007F00"/>
    <ellipse cx="9.48585" cy="10" rx="3.55714" ry="3" fill="#007F00"/>
    </svg>