<svg width="482" height="211" viewBox="0 0 482 211" fill="none" xmlns="http://www.w3.org/2000/svg">
<g filter="url(#filter0_d_190_542)">
<rect x="1" y="1" width="440" height="169" rx="16" fill="#F4F2FF"/>
<rect x="1" y="1" width="440" height="169" rx="16" stroke="black" stroke-opacity="0.1"/>
<path d="M55.532 35.264H59.756V37.856H55.532V35.264ZM58.868 29.912H62.084V43.112H58.868V29.912ZM54.548 43.592C56.116 43.592 57.468 43.76 58.604 44.096C59.74 44.432 60.612 44.92 61.22 45.56C61.844 46.2 62.156 46.968 62.156 47.864C62.156 49.24 61.476 50.296 60.116 51.032C58.756 51.784 56.9 52.16 54.548 52.16C52.196 52.16 50.34 51.784 48.98 51.032C47.62 50.296 46.94 49.24 46.94 47.864C46.94 46.968 47.244 46.2 47.852 45.56C48.476 44.92 49.356 44.432 50.492 44.096C51.628 43.76 52.98 43.592 54.548 43.592ZM54.548 46.016C53.588 46.016 52.78 46.088 52.124 46.232C51.468 46.36 50.964 46.56 50.612 46.832C50.276 47.104 50.108 47.448 50.108 47.864C50.108 48.28 50.276 48.632 50.612 48.92C50.964 49.192 51.468 49.4 52.124 49.544C52.78 49.672 53.588 49.736 54.548 49.736C55.508 49.736 56.316 49.672 56.972 49.544C57.628 49.4 58.124 49.192 58.46 48.92C58.796 48.632 58.964 48.28 58.964 47.864C58.964 47.448 58.796 47.104 58.46 46.832C58.124 46.56 57.628 46.36 56.972 46.232C56.316 46.088 55.508 46.016 54.548 46.016ZM48.62 32.12H51.212V33.536C51.212 34.944 50.988 36.288 50.54 37.568C50.092 38.848 49.404 39.976 48.476 40.952C47.564 41.912 46.396 42.632 44.972 43.112L43.364 40.592C44.276 40.288 45.06 39.88 45.716 39.368C46.388 38.856 46.932 38.288 47.348 37.664C47.78 37.024 48.1 36.352 48.308 35.648C48.516 34.944 48.62 34.24 48.62 33.536V32.12ZM49.292 32.12H51.836V33.512C51.836 34.392 52.012 35.256 52.364 36.104C52.716 36.952 53.26 37.72 53.996 38.408C54.748 39.096 55.708 39.64 56.876 40.04L55.316 42.536C53.94 42.072 52.804 41.392 51.908 40.496C51.028 39.584 50.372 38.528 49.94 37.328C49.508 36.112 49.292 34.84 49.292 33.512V32.12ZM44.228 31.256H56.18V33.776H44.228V31.256ZM79.8421 29.912H83.0341V41H79.8421V29.912ZM81.7621 34.16H85.9621V36.752H81.7621V34.16ZM66.1861 30.944H76.7941V40.184H66.1861V30.944ZM73.6501 33.416H69.3301V37.664H73.6501V33.416ZM68.3701 41.864H83.0341V47.96H71.5621V50.624H68.3941V45.656H79.8901V44.336H68.3701V41.864ZM68.3941 49.4H83.6821V51.896H68.3941V49.4ZM94.2174 30.872H97.3854V33.512H101.753V30.872H104.897V40.592H94.2174V30.872ZM97.3854 35.888V38.12H101.753V35.888H97.3854ZM107.873 29.912H111.065V41.192H107.873V29.912ZM109.793 34.16H113.993V36.776H109.793V34.16ZM96.4014 42.032H111.065V48.104H99.5934V50.72H96.4254V45.824H107.921V44.48H96.4014V42.032ZM96.4254 49.496H111.713V51.992H96.4254V49.496ZM123.88 32.36H126.664V33.032C126.664 33.8 126.536 34.544 126.28 35.264C126.04 35.984 125.672 36.656 125.176 37.28C124.68 37.888 124.072 38.44 123.352 38.936C122.648 39.416 121.832 39.824 120.904 40.16C119.976 40.496 118.944 40.736 117.808 40.88L116.632 38.408C117.624 38.28 118.504 38.088 119.272 37.832C120.056 37.56 120.736 37.248 121.312 36.896C121.888 36.528 122.368 36.136 122.752 35.72C123.136 35.304 123.416 34.864 123.592 34.4C123.784 33.936 123.88 33.48 123.88 33.032V32.36ZM124.816 32.36H127.576V33.032C127.576 33.48 127.664 33.936 127.84 34.4C128.032 34.864 128.32 35.304 128.704 35.72C129.088 36.136 129.568 36.528 130.144 36.896C130.736 37.248 131.416 37.56 132.184 37.832C132.952 38.088 133.832 38.28 134.824 38.408L133.648 40.88C132.512 40.736 131.48 40.496 130.552 40.16C129.624 39.824 128.8 39.416 128.08 38.936C127.376 38.44 126.776 37.888 126.28 37.28C125.8 36.656 125.432 35.984 125.176 35.264C124.936 34.544 124.816 33.8 124.816 33.032V32.36ZM124.048 44H127.24V52.136H124.048V44ZM115.672 42.152H135.784V44.72H115.672V42.152ZM117.448 31.04H133.936V33.56H117.448V31.04ZM142.622 31.088H145.238V33.08C145.238 34.536 145.014 35.92 144.566 37.232C144.134 38.528 143.462 39.664 142.55 40.64C141.638 41.616 140.478 42.344 139.07 42.824L137.39 40.328C138.638 39.896 139.646 39.312 140.414 38.576C141.182 37.824 141.742 36.968 142.094 36.008C142.446 35.048 142.622 34.072 142.622 33.08V31.088ZM143.27 31.088H145.838V33.368C145.838 34.04 145.934 34.696 146.126 35.336C146.334 35.976 146.638 36.576 147.038 37.136C147.438 37.696 147.95 38.2 148.574 38.648C149.198 39.08 149.95 39.432 150.83 39.704L149.174 42.2C147.83 41.752 146.718 41.088 145.838 40.208C144.974 39.328 144.326 38.304 143.894 37.136C143.478 35.968 143.27 34.712 143.27 33.368V31.088ZM152.03 29.912H155.222V43.04H152.03V29.912ZM154.358 35.048H158.174V37.688H154.358V35.048ZM147.974 43.544C149.526 43.544 150.862 43.72 151.982 44.072C153.102 44.408 153.966 44.896 154.574 45.536C155.182 46.16 155.486 46.928 155.486 47.84C155.486 48.736 155.182 49.504 154.574 50.144C153.966 50.784 153.102 51.272 151.982 51.608C150.862 51.96 149.526 52.136 147.974 52.136C146.438 52.136 145.102 51.96 143.966 51.608C142.846 51.272 141.974 50.784 141.35 50.144C140.742 49.504 140.438 48.736 140.438 47.84C140.438 46.928 140.742 46.16 141.35 45.536C141.974 44.896 142.846 44.408 143.966 44.072C145.102 43.72 146.438 43.544 147.974 43.544ZM147.974 46.016C147.03 46.016 146.238 46.088 145.598 46.232C144.958 46.36 144.47 46.56 144.134 46.832C143.798 47.088 143.63 47.424 143.63 47.84C143.63 48.24 143.798 48.576 144.134 48.848C144.47 49.12 144.958 49.328 145.598 49.472C146.238 49.6 147.03 49.664 147.974 49.664C148.918 49.664 149.71 49.6 150.35 49.472C151.006 49.328 151.494 49.12 151.814 48.848C152.15 48.576 152.318 48.24 152.318 47.84C152.318 47.424 152.15 47.088 151.814 46.832C151.494 46.56 151.006 46.36 150.35 46.232C149.71 46.088 148.918 46.016 147.974 46.016ZM160.548 44.432H162.108C163.196 44.432 164.164 44.424 165.012 44.408C165.876 44.376 166.7 44.336 167.484 44.288C168.284 44.224 169.092 44.128 169.908 44L170.172 46.568C169.34 46.712 168.516 46.824 167.7 46.904C166.884 46.968 166.028 47.008 165.132 47.024C164.236 47.04 163.228 47.048 162.108 47.048H160.548V44.432ZM160.548 32.192H169.524V34.736H163.596V45.488H160.548V32.192ZM162.708 38.024H169.092V40.472H162.708V38.024ZM175.86 29.888H178.908V52.112H175.86V29.888ZM173.196 38.504H176.892V41.072H173.196V38.504ZM171.084 30.248H174.06V51.128H171.084V30.248ZM181.906 39.872H202.018V42.176H181.906V39.872ZM184.162 43.304H199.642V48.584H187.354V50.48H184.186V46.568H196.498V45.464H184.162V43.304ZM184.186 49.784H200.266V51.944H184.186V49.784ZM184.354 30.272H199.57V35.528H187.546V37.328H184.402V33.512H196.426V32.432H184.354V30.272ZM184.402 36.68H199.978V38.84H184.402V36.68ZM220.833 33.608H226.497V36.152H220.833V33.608ZM220.833 38.384H226.569V40.928H220.833V38.384ZM225.321 29.912H228.537V46.304H225.321V29.912ZM213.825 49.184H229.017V51.752H213.825V49.184ZM213.825 44.696H217.017V50.648H213.825V44.696ZM210.849 31.376H214.017V34.736H218.241V31.376H221.385V42.848H210.849V31.376ZM214.017 37.184V40.304H218.241V37.184H214.017ZM242.719 33.416H247.927V35.936H242.719V33.416ZM242.527 38H247.759V40.568H242.527V38ZM247.399 29.888H250.615V42.68H247.399V29.888ZM240.175 31.4H243.559C243.559 33.416 243.183 35.2 242.431 36.752C241.679 38.288 240.551 39.592 239.047 40.664C237.543 41.72 235.663 42.56 233.407 43.184L232.183 40.688C234.071 40.192 235.599 39.568 236.767 38.816C237.935 38.048 238.791 37.168 239.335 36.176C239.895 35.184 240.175 34.112 240.175 32.96V31.4ZM233.383 31.4H242.407V33.944H233.383V31.4ZM243.247 42.968C244.751 42.968 246.063 43.152 247.183 43.52C248.319 43.888 249.191 44.408 249.799 45.08C250.423 45.752 250.735 46.552 250.735 47.48C250.735 48.408 250.423 49.208 249.799 49.88C249.191 50.552 248.319 51.072 247.183 51.44C246.063 51.824 244.751 52.016 243.247 52.016C241.743 52.016 240.423 51.824 239.287 51.44C238.167 51.072 237.295 50.552 236.671 49.88C236.047 49.208 235.735 48.408 235.735 47.48C235.735 46.552 236.047 45.752 236.671 45.08C237.295 44.408 238.167 43.888 239.287 43.52C240.423 43.152 241.743 42.968 243.247 42.968ZM243.247 45.416C242.335 45.416 241.551 45.496 240.895 45.656C240.255 45.816 239.759 46.048 239.407 46.352C239.055 46.656 238.879 47.032 238.879 47.48C238.879 47.928 239.055 48.312 239.407 48.632C239.759 48.936 240.255 49.168 240.895 49.328C241.551 49.472 242.335 49.544 243.247 49.544C244.159 49.544 244.935 49.472 245.575 49.328C246.215 49.168 246.711 48.936 247.063 48.632C247.415 48.312 247.591 47.928 247.591 47.48C247.591 47.032 247.415 46.656 247.063 46.352C246.711 46.048 246.215 45.816 245.575 45.656C244.935 45.496 244.159 45.416 243.247 45.416ZM268.325 29.912H271.517V52.136H268.325V29.912ZM270.797 38.576H274.709V41.216H270.797V38.576ZM253.973 33.176H266.933V35.72H253.973V33.176ZM260.501 36.992C261.573 36.992 262.533 37.224 263.381 37.688C264.229 38.136 264.893 38.752 265.373 39.536C265.869 40.32 266.117 41.232 266.117 42.272C266.117 43.312 265.869 44.232 265.373 45.032C264.893 45.816 264.229 46.44 263.381 46.904C262.549 47.352 261.589 47.576 260.501 47.576C259.429 47.576 258.461 47.352 257.597 46.904C256.749 46.44 256.077 45.816 255.581 45.032C255.101 44.232 254.861 43.312 254.861 42.272C254.861 41.232 255.101 40.32 255.581 39.536C256.077 38.752 256.749 38.136 257.597 37.688C258.461 37.224 259.429 36.992 260.501 36.992ZM260.501 39.584C259.989 39.584 259.541 39.688 259.157 39.896C258.773 40.104 258.469 40.408 258.245 40.808C258.021 41.208 257.909 41.696 257.909 42.272C257.909 42.832 258.021 43.32 258.245 43.736C258.469 44.136 258.773 44.448 259.157 44.672C259.541 44.88 259.989 44.984 260.501 44.984C260.997 44.984 261.437 44.88 261.821 44.672C262.205 44.448 262.509 44.136 262.733 43.736C262.957 43.32 263.069 42.832 263.069 42.272C263.069 41.696 262.957 41.208 262.733 40.808C262.509 40.408 262.205 40.104 261.821 39.896C261.437 39.688 260.997 39.584 260.501 39.584ZM258.869 30.272H262.085V34.16H258.869V30.272ZM281.572 31.616H284.188V34.832C284.188 36.272 284.06 37.656 283.804 38.984C283.548 40.296 283.156 41.528 282.628 42.68C282.116 43.816 281.452 44.824 280.636 45.704C279.836 46.568 278.884 47.256 277.78 47.768L275.884 45.128C276.86 44.696 277.7 44.128 278.404 43.424C279.124 42.704 279.716 41.888 280.18 40.976C280.644 40.048 280.988 39.064 281.212 38.024C281.452 36.984 281.572 35.92 281.572 34.832V31.616ZM282.196 31.616H284.788V34.832C284.788 35.872 284.9 36.888 285.124 37.88C285.348 38.872 285.684 39.808 286.132 40.688C286.596 41.568 287.172 42.352 287.859 43.04C288.564 43.712 289.388 44.248 290.332 44.648L288.484 47.24C287.412 46.744 286.476 46.08 285.676 45.248C284.892 44.416 284.244 43.456 283.732 42.368C283.22 41.264 282.836 40.08 282.58 38.816C282.324 37.536 282.196 36.208 282.196 34.832V31.616ZM291.412 29.864H294.604V52.16H291.412V29.864ZM304.754 31.424H307.97C307.97 33.296 307.682 34.976 307.106 36.464C306.53 37.936 305.642 39.224 304.442 40.328C303.242 41.432 301.69 42.384 299.786 43.184L298.226 40.856C299.778 40.232 301.034 39.52 301.994 38.72C302.954 37.92 303.65 37.008 304.082 35.984C304.53 34.96 304.754 33.816 304.754 32.552V31.424ZM299.402 31.424H306.026V33.968H299.402V31.424ZM314.138 29.888H317.186V42.512H314.138V29.888ZM305.402 35.672H310.106V38.216H305.402V35.672ZM309.626 30.32H312.602V42.248H309.626V30.32ZM303.362 43.208H305.762V44.192C305.762 45.328 305.586 46.408 305.234 47.432C304.898 48.456 304.362 49.36 303.626 50.144C302.89 50.928 301.938 51.528 300.77 51.944L299.234 49.616C300.21 49.28 301.002 48.832 301.61 48.272C302.218 47.696 302.658 47.056 302.93 46.352C303.218 45.648 303.362 44.928 303.362 44.192V43.208ZM304.178 43.208H306.458V44.192C306.458 44.928 306.586 45.656 306.842 46.376C307.098 47.08 307.506 47.736 308.066 48.344C308.626 48.936 309.354 49.432 310.25 49.832L308.954 52.16C307.786 51.712 306.85 51.072 306.146 50.24C305.442 49.408 304.938 48.472 304.634 47.432C304.33 46.376 304.178 45.296 304.178 44.192V43.208ZM311.45 43.208H313.73V44.192C313.73 45.216 313.57 46.256 313.25 47.312C312.93 48.368 312.426 49.32 311.738 50.168C311.05 51.016 310.122 51.68 308.954 52.16L307.634 49.832C308.546 49.4 309.282 48.872 309.842 48.248C310.402 47.624 310.81 46.96 311.066 46.256C311.322 45.536 311.45 44.848 311.45 44.192V43.208ZM312.194 43.208H314.594V44.192C314.594 44.976 314.73 45.72 315.002 46.424C315.29 47.128 315.738 47.76 316.346 48.32C316.954 48.88 317.746 49.312 318.722 49.616L317.162 51.944C315.994 51.544 315.042 50.96 314.306 50.192C313.586 49.424 313.05 48.528 312.698 47.504C312.362 46.464 312.194 45.36 312.194 44.192V43.208ZM322.656 43.208H325.824V45.08H334.728V43.208H337.872V51.896H322.656V43.208ZM325.824 47.48V49.4H334.728V47.48H325.824ZM320.304 39.608H340.416V42.104H320.304V39.608ZM328.728 30.128H331.464V30.8C331.464 31.584 331.328 32.328 331.056 33.032C330.8 33.736 330.424 34.392 329.928 35C329.432 35.608 328.816 36.16 328.08 36.656C327.36 37.136 326.528 37.544 325.584 37.88C324.64 38.2 323.592 38.44 322.44 38.6L321.288 36.128C322.296 36.016 323.2 35.832 324 35.576C324.8 35.32 325.496 35.016 326.088 34.664C326.68 34.296 327.168 33.904 327.552 33.488C327.952 33.056 328.248 32.616 328.44 32.168C328.632 31.704 328.728 31.248 328.728 30.8V30.128ZM329.256 30.128H331.992V30.8C331.992 31.248 332.088 31.704 332.28 32.168C332.472 32.616 332.76 33.056 333.144 33.488C333.544 33.904 334.04 34.296 334.632 34.664C335.224 35.016 335.92 35.32 336.72 35.576C337.536 35.832 338.44 36.016 339.432 36.128L338.28 38.6C337.128 38.44 336.08 38.2 335.136 37.88C334.208 37.544 333.376 37.136 332.64 36.656C331.904 36.16 331.288 35.608 330.792 35C330.296 34.392 329.912 33.736 329.64 33.032C329.384 32.312 329.256 31.568 329.256 30.8V30.128ZM357.79 29.888H360.958V52.112H357.79V29.888ZM343.558 32H346.75V45.824H343.558V32ZM343.558 43.928H345.526C347.158 43.928 348.862 43.864 350.638 43.736C352.414 43.592 354.222 43.336 356.062 42.968L356.398 45.632C354.51 46.032 352.646 46.304 350.806 46.448C348.982 46.576 347.222 46.64 345.526 46.64H343.558V43.928ZM378.956 29.888H382.148V52.112H378.956V29.888ZM381.164 38.576H385.028V41.216H381.164V38.576ZM368.036 32.168H371.012C371.012 33.704 370.956 35.16 370.844 36.536C370.748 37.912 370.548 39.224 370.244 40.472C369.94 41.72 369.484 42.928 368.876 44.096C368.284 45.248 367.5 46.376 366.524 47.48L364.028 45.656C364.876 44.712 365.564 43.76 366.092 42.8C366.62 41.84 367.028 40.84 367.316 39.8C367.604 38.76 367.796 37.648 367.892 36.464C367.988 35.264 368.036 33.952 368.036 32.528V32.168ZM365.012 32.168H369.284V34.736H365.012V32.168ZM374.156 32.168H377.156C377.156 33.768 377.1 35.32 376.988 36.824C376.892 38.312 376.692 39.752 376.388 41.144C376.084 42.52 375.644 43.856 375.068 45.152C374.492 46.432 373.716 47.672 372.74 48.872L370.244 47.12C371.092 46.048 371.772 44.968 372.284 43.88C372.796 42.792 373.188 41.664 373.46 40.496C373.732 39.328 373.916 38.088 374.012 36.776C374.108 35.464 374.156 34.04 374.156 32.504V32.168ZM371.78 32.168H375.476V34.736H371.78V32.168ZM390.112 44.8693V44.6477C390.118 43.6193 390.214 42.8011 390.402 42.1932C390.595 41.5852 390.868 41.0966 391.22 40.7273C391.572 40.3523 392.001 40.0085 392.507 39.696C392.854 39.4801 393.163 39.2443 393.436 38.9886C393.714 38.7273 393.933 38.4375 394.092 38.1193C394.251 37.7955 394.331 37.4347 394.331 37.0369C394.331 36.5881 394.226 36.1989 394.016 35.8693C393.805 35.5398 393.521 35.2841 393.163 35.1023C392.811 34.9205 392.416 34.8295 391.979 34.8295C391.575 34.8295 391.192 34.9176 390.828 35.0938C390.47 35.2642 390.172 35.5256 389.933 35.8778C389.7 36.2244 389.57 36.6648 389.541 37.1989H386.507C386.536 36.1193 386.797 35.2159 387.291 34.4886C387.791 33.7614 388.45 33.2159 389.268 32.8523C390.092 32.4886 391.001 32.3068 391.996 32.3068C393.081 32.3068 394.036 32.4972 394.859 32.8778C395.689 33.2585 396.334 33.8011 396.794 34.5057C397.26 35.2045 397.493 36.0341 397.493 36.9943C397.493 37.642 397.388 38.2216 397.178 38.733C396.973 39.2443 396.68 39.6989 396.3 40.0966C395.919 40.4943 395.467 40.8494 394.945 41.1619C394.484 41.446 394.107 41.7415 393.811 42.0483C393.521 42.3551 393.305 42.7159 393.163 43.1307C393.027 43.5398 392.956 44.0455 392.95 44.6477V44.8693H390.112ZM391.595 50.1875C391.084 50.1875 390.643 50.0057 390.274 49.642C389.905 49.2784 389.72 48.8352 389.72 48.3125C389.72 47.8011 389.905 47.3636 390.274 47C390.643 46.6364 391.084 46.4545 391.595 46.4545C392.101 46.4545 392.538 46.6364 392.908 47C393.283 47.3636 393.47 47.8011 393.47 48.3125C393.47 48.6591 393.382 48.9744 393.206 49.2585C393.036 49.5426 392.808 49.7699 392.524 49.9403C392.246 50.1051 391.936 50.1875 391.595 50.1875Z" fill="#6E6893"/>
<rect x="407" y="11" width="24" height="24" rx="12" fill="#E5E5E5"/>
<path d="M419 21.8891L422.889 18L424 19.1109L420.111 23L424 26.8891L422.889 28L419 24.1109L415.111 28L414 26.8891L417.889 23L414 19.1109L415.111 18L419 21.8891Z" fill="#F4F2FF"/>
<rect x="53" y="90" width="160" height="48" rx="8" fill="white"/>
<path d="M132.06 109.772H134.892V110.86H132.06V109.772ZM132.06 114.172H134.892V115.276H132.06V114.172ZM137.324 106.268H138.604V120.748H137.324V106.268ZM134.476 106.572H135.74V120.012H134.476V106.572ZM129.548 107.484C130.177 107.484 130.721 107.687 131.18 108.092C131.649 108.497 132.012 109.079 132.268 109.836C132.524 110.593 132.652 111.484 132.652 112.508C132.652 113.543 132.524 114.439 132.268 115.196C132.012 115.953 131.649 116.54 131.18 116.956C130.721 117.361 130.177 117.564 129.548 117.564C128.94 117.564 128.401 117.361 127.932 116.956C127.473 116.54 127.116 115.953 126.86 115.196C126.604 114.439 126.476 113.543 126.476 112.508C126.476 111.484 126.604 110.593 126.86 109.836C127.116 109.079 127.473 108.497 127.932 108.092C128.401 107.687 128.94 107.484 129.548 107.484ZM129.548 108.716C129.175 108.716 128.844 108.871 128.556 109.18C128.279 109.489 128.065 109.927 127.916 110.492C127.767 111.057 127.692 111.729 127.692 112.508C127.692 113.287 127.767 113.964 127.916 114.54C128.065 115.105 128.279 115.543 128.556 115.852C128.844 116.161 129.175 116.316 129.548 116.316C129.943 116.316 130.279 116.161 130.556 115.852C130.833 115.543 131.047 115.105 131.196 114.54C131.356 113.964 131.436 113.287 131.436 112.508C131.436 111.729 131.356 111.057 131.196 110.492C131.047 109.927 130.833 109.489 130.556 109.18C130.279 108.871 129.943 108.716 129.548 108.716Z" fill="#6E6893"/>
<rect x="229" y="90" width="160" height="48" rx="8" fill="#6D5BD0"/>
<path d="M291.14 107.388C291.855 107.388 292.484 107.596 293.028 108.012C293.572 108.417 293.999 108.999 294.308 109.756C294.617 110.513 294.772 111.404 294.772 112.428C294.772 113.452 294.617 114.343 294.308 115.1C293.999 115.857 293.572 116.444 293.028 116.86C292.484 117.276 291.855 117.484 291.14 117.484C290.436 117.484 289.807 117.276 289.252 116.86C288.708 116.444 288.281 115.857 287.972 115.1C287.663 114.343 287.508 113.452 287.508 112.428C287.508 111.404 287.663 110.513 287.972 109.756C288.281 108.999 288.708 108.417 289.252 108.012C289.807 107.596 290.436 107.388 291.14 107.388ZM291.14 108.572C290.681 108.572 290.271 108.732 289.908 109.052C289.556 109.361 289.279 109.809 289.076 110.396C288.873 110.972 288.772 111.649 288.772 112.428C288.772 113.207 288.873 113.889 289.076 114.476C289.279 115.052 289.556 115.5 289.908 115.82C290.271 116.14 290.687 116.3 291.156 116.3C291.615 116.3 292.02 116.14 292.372 115.82C292.735 115.5 293.012 115.052 293.204 114.476C293.407 113.889 293.508 113.207 293.508 112.428C293.508 111.649 293.407 110.972 293.204 110.396C293.012 109.809 292.735 109.361 292.372 109.052C292.02 108.732 291.609 108.572 291.14 108.572ZM297.092 106.268H298.42V120.748H297.092V106.268ZM298.116 112.044H300.788V113.164H298.116V112.044ZM312.547 106.268H313.859V120.748H312.547V106.268ZM302.931 107.692H304.243V116.652H302.931V107.692ZM302.931 115.868H304.115C305.224 115.868 306.349 115.82 307.491 115.724C308.643 115.617 309.827 115.441 311.043 115.196L311.219 116.316C309.96 116.583 308.749 116.769 307.587 116.876C306.424 116.972 305.267 117.02 304.115 117.02H302.931V115.868ZM319.954 113.724H321.266V118.044H319.954V113.724ZM325.298 113.724H326.626V118.044H325.298V113.724ZM316.738 117.788H329.858V118.892H316.738V117.788ZM323.266 107.18C324.29 107.18 325.196 107.335 325.986 107.644C326.775 107.953 327.394 108.385 327.842 108.94C328.3 109.495 328.53 110.151 328.53 110.908C328.53 111.655 328.3 112.311 327.842 112.876C327.394 113.431 326.775 113.863 325.986 114.172C325.196 114.471 324.29 114.62 323.266 114.62C322.252 114.62 321.346 114.471 320.546 114.172C319.756 113.863 319.138 113.431 318.69 112.876C318.242 112.311 318.018 111.655 318.018 110.908C318.018 110.151 318.242 109.495 318.69 108.94C319.138 108.385 319.756 107.953 320.546 107.644C321.346 107.335 322.252 107.18 323.266 107.18ZM323.266 108.236C322.498 108.236 321.815 108.348 321.218 108.572C320.62 108.796 320.151 109.111 319.81 109.516C319.468 109.911 319.298 110.375 319.298 110.908C319.298 111.441 319.468 111.911 319.81 112.316C320.151 112.711 320.62 113.02 321.218 113.244C321.815 113.468 322.498 113.58 323.266 113.58C324.044 113.58 324.732 113.468 325.33 113.244C325.927 113.02 326.396 112.711 326.738 112.316C327.079 111.911 327.25 111.441 327.25 110.908C327.25 110.375 327.079 109.911 326.738 109.516C326.396 109.111 325.927 108.796 325.33 108.572C324.732 108.348 324.044 108.236 323.266 108.236Z" fill="#F5F5F5"/>
</g>
<defs>
<filter id="filter0_d_190_542" x="0.5" y="0.5" width="481" height="210" filterUnits="userSpaceOnUse" color-interpolation-filters="sRGB">
<feFlood flood-opacity="0" result="BackgroundImageFix"/>
<feColorMatrix in="SourceAlpha" type="matrix" values="0 0 0 0 0 0 0 0 0 0 0 0 0 0 0 0 0 0 127 0" result="hardAlpha"/>
<feOffset dx="20" dy="20"/>
<feGaussianBlur stdDeviation="10"/>
<feColorMatrix type="matrix" values="0 0 0 0 0 0 0 0 0 0 0 0 0 0 0 0 0 0 0.08 0"/>
<feBlend mode="normal" in2="BackgroundImageFix" result="effect1_dropShadow_190_542"/>
<feBlend mode="normal" in="SourceGraphic" in2="effect1_dropShadow_190_542" result="shape"/>
</filter>
</defs>
</svg>
